<mxfile host="app.diagrams.net" modified="2023-11-14T23:24:45.887Z" agent="Mozilla/5.0 (Windows NT 10.0; Win64; x64) AppleWebKit/537.36 (KHTML, like Gecko) Chrome/118.0.0.0 Safari/537.36" etag="0s9t7bFYUhr6KDuGgUDH" version="22.1.1" type="github">
  <diagram id="R2lEEEUBdFMjLlhIrx00" name="Page-1">
    <mxGraphModel dx="2250" dy="761" grid="1" gridSize="10" guides="1" tooltips="1" connect="1" arrows="1" fold="1" page="1" pageScale="1" pageWidth="850" pageHeight="1100" math="0" shadow="0" extFonts="Permanent Marker^https://fonts.googleapis.com/css?family=Permanent+Marker">
      <root>
        <mxCell id="0" />
        <mxCell id="1" parent="0" />
        <mxCell id="F3BoEiRZaCUdNHYmwXmp-4" style="edgeStyle=orthogonalEdgeStyle;rounded=0;orthogonalLoop=1;jettySize=auto;html=1;" edge="1" parent="1" source="F3BoEiRZaCUdNHYmwXmp-1" target="F3BoEiRZaCUdNHYmwXmp-3">
          <mxGeometry relative="1" as="geometry" />
        </mxCell>
        <mxCell id="F3BoEiRZaCUdNHYmwXmp-31" style="edgeStyle=orthogonalEdgeStyle;rounded=0;orthogonalLoop=1;jettySize=auto;html=1;exitX=0.5;exitY=1;exitDx=0;exitDy=0;entryX=0.5;entryY=0;entryDx=0;entryDy=0;" edge="1" parent="1" source="F3BoEiRZaCUdNHYmwXmp-1" target="F3BoEiRZaCUdNHYmwXmp-16">
          <mxGeometry relative="1" as="geometry" />
        </mxCell>
        <mxCell id="F3BoEiRZaCUdNHYmwXmp-1" value="mietet" style="rhombus;whiteSpace=wrap;html=1;" vertex="1" parent="1">
          <mxGeometry x="380" y="360" width="120" height="80" as="geometry" />
        </mxCell>
        <mxCell id="F3BoEiRZaCUdNHYmwXmp-6" value="" style="edgeStyle=orthogonalEdgeStyle;rounded=0;orthogonalLoop=1;jettySize=auto;html=1;" edge="1" parent="1" source="F3BoEiRZaCUdNHYmwXmp-3" target="F3BoEiRZaCUdNHYmwXmp-5">
          <mxGeometry relative="1" as="geometry" />
        </mxCell>
        <mxCell id="F3BoEiRZaCUdNHYmwXmp-3" value="Mietshaus" style="rounded=0;whiteSpace=wrap;html=1;" vertex="1" parent="1">
          <mxGeometry x="180" y="370" width="120" height="60" as="geometry" />
        </mxCell>
        <mxCell id="F3BoEiRZaCUdNHYmwXmp-8" value="" style="edgeStyle=orthogonalEdgeStyle;rounded=0;orthogonalLoop=1;jettySize=auto;html=1;" edge="1" parent="1" source="F3BoEiRZaCUdNHYmwXmp-5" target="F3BoEiRZaCUdNHYmwXmp-7">
          <mxGeometry relative="1" as="geometry" />
        </mxCell>
        <mxCell id="F3BoEiRZaCUdNHYmwXmp-15" value="" style="edgeStyle=orthogonalEdgeStyle;rounded=0;orthogonalLoop=1;jettySize=auto;html=1;" edge="1" parent="1" source="F3BoEiRZaCUdNHYmwXmp-5" target="F3BoEiRZaCUdNHYmwXmp-14">
          <mxGeometry relative="1" as="geometry" />
        </mxCell>
        <mxCell id="F3BoEiRZaCUdNHYmwXmp-18" value="" style="edgeStyle=orthogonalEdgeStyle;rounded=0;orthogonalLoop=1;jettySize=auto;html=1;" edge="1" parent="1" source="F3BoEiRZaCUdNHYmwXmp-5" target="F3BoEiRZaCUdNHYmwXmp-14">
          <mxGeometry relative="1" as="geometry" />
        </mxCell>
        <mxCell id="F3BoEiRZaCUdNHYmwXmp-19" value="" style="edgeStyle=orthogonalEdgeStyle;rounded=0;orthogonalLoop=1;jettySize=auto;html=1;" edge="1" parent="1" source="F3BoEiRZaCUdNHYmwXmp-5" target="F3BoEiRZaCUdNHYmwXmp-14">
          <mxGeometry relative="1" as="geometry" />
        </mxCell>
        <mxCell id="F3BoEiRZaCUdNHYmwXmp-21" style="edgeStyle=orthogonalEdgeStyle;rounded=0;orthogonalLoop=1;jettySize=auto;html=1;exitX=0.5;exitY=1;exitDx=0;exitDy=0;entryX=0.5;entryY=0;entryDx=0;entryDy=0;" edge="1" parent="1" source="F3BoEiRZaCUdNHYmwXmp-5" target="F3BoEiRZaCUdNHYmwXmp-20">
          <mxGeometry relative="1" as="geometry" />
        </mxCell>
        <mxCell id="F3BoEiRZaCUdNHYmwXmp-30" style="edgeStyle=orthogonalEdgeStyle;rounded=0;orthogonalLoop=1;jettySize=auto;html=1;exitX=0.5;exitY=1;exitDx=0;exitDy=0;" edge="1" parent="1" source="F3BoEiRZaCUdNHYmwXmp-5" target="F3BoEiRZaCUdNHYmwXmp-29">
          <mxGeometry relative="1" as="geometry" />
        </mxCell>
        <mxCell id="F3BoEiRZaCUdNHYmwXmp-33" style="edgeStyle=orthogonalEdgeStyle;rounded=0;orthogonalLoop=1;jettySize=auto;html=1;exitX=0;exitY=0;exitDx=0;exitDy=0;" edge="1" parent="1" source="F3BoEiRZaCUdNHYmwXmp-5">
          <mxGeometry relative="1" as="geometry">
            <mxPoint x="80" y="440" as="targetPoint" />
          </mxGeometry>
        </mxCell>
        <mxCell id="F3BoEiRZaCUdNHYmwXmp-5" value="Wohnung" style="rounded=0;whiteSpace=wrap;html=1;" vertex="1" parent="1">
          <mxGeometry x="180" y="510" width="120" height="60" as="geometry" />
        </mxCell>
        <mxCell id="F3BoEiRZaCUdNHYmwXmp-10" value="" style="edgeStyle=orthogonalEdgeStyle;rounded=0;orthogonalLoop=1;jettySize=auto;html=1;" edge="1" parent="1" source="F3BoEiRZaCUdNHYmwXmp-7" target="F3BoEiRZaCUdNHYmwXmp-9">
          <mxGeometry relative="1" as="geometry" />
        </mxCell>
        <mxCell id="F3BoEiRZaCUdNHYmwXmp-12" value="" style="edgeStyle=orthogonalEdgeStyle;rounded=0;orthogonalLoop=1;jettySize=auto;html=1;" edge="1" parent="1" source="F3BoEiRZaCUdNHYmwXmp-7" target="F3BoEiRZaCUdNHYmwXmp-11">
          <mxGeometry relative="1" as="geometry" />
        </mxCell>
        <mxCell id="F3BoEiRZaCUdNHYmwXmp-7" value="Strom/Gas/Wasser Zähler" style="whiteSpace=wrap;html=1;rounded=0;" vertex="1" parent="1">
          <mxGeometry x="-20" y="510" width="120" height="60" as="geometry" />
        </mxCell>
        <mxCell id="F3BoEiRZaCUdNHYmwXmp-9" value="Stand" style="ellipse;whiteSpace=wrap;html=1;rounded=0;" vertex="1" parent="1">
          <mxGeometry y="640" width="80" height="50" as="geometry" />
        </mxCell>
        <mxCell id="F3BoEiRZaCUdNHYmwXmp-11" value="Bevoriger Stand" style="ellipse;whiteSpace=wrap;html=1;rounded=0;" vertex="1" parent="1">
          <mxGeometry x="-180" y="510" width="80" height="60" as="geometry" />
        </mxCell>
        <mxCell id="F3BoEiRZaCUdNHYmwXmp-14" value="Lage" style="ellipse;whiteSpace=wrap;html=1;rounded=0;" vertex="1" parent="1">
          <mxGeometry x="270" y="640" width="80" height="50" as="geometry" />
        </mxCell>
        <mxCell id="F3BoEiRZaCUdNHYmwXmp-23" value="" style="edgeStyle=orthogonalEdgeStyle;rounded=0;orthogonalLoop=1;jettySize=auto;html=1;" edge="1" parent="1" source="F3BoEiRZaCUdNHYmwXmp-16" target="F3BoEiRZaCUdNHYmwXmp-22">
          <mxGeometry relative="1" as="geometry" />
        </mxCell>
        <mxCell id="F3BoEiRZaCUdNHYmwXmp-27" value="" style="edgeStyle=orthogonalEdgeStyle;rounded=0;orthogonalLoop=1;jettySize=auto;html=1;" edge="1" parent="1" source="F3BoEiRZaCUdNHYmwXmp-16" target="F3BoEiRZaCUdNHYmwXmp-26">
          <mxGeometry relative="1" as="geometry" />
        </mxCell>
        <mxCell id="F3BoEiRZaCUdNHYmwXmp-32" style="edgeStyle=orthogonalEdgeStyle;rounded=0;orthogonalLoop=1;jettySize=auto;html=1;exitX=0;exitY=0.5;exitDx=0;exitDy=0;entryX=1;entryY=0.5;entryDx=0;entryDy=0;" edge="1" parent="1" source="F3BoEiRZaCUdNHYmwXmp-16" target="F3BoEiRZaCUdNHYmwXmp-5">
          <mxGeometry relative="1" as="geometry">
            <mxPoint x="310" y="540" as="targetPoint" />
          </mxGeometry>
        </mxCell>
        <mxCell id="F3BoEiRZaCUdNHYmwXmp-38" style="edgeStyle=orthogonalEdgeStyle;rounded=0;orthogonalLoop=1;jettySize=auto;html=1;exitX=1;exitY=1;exitDx=0;exitDy=0;entryX=0.5;entryY=0;entryDx=0;entryDy=0;" edge="1" parent="1" source="F3BoEiRZaCUdNHYmwXmp-16" target="F3BoEiRZaCUdNHYmwXmp-37">
          <mxGeometry relative="1" as="geometry">
            <Array as="points">
              <mxPoint x="440" y="570" />
              <mxPoint x="440" y="605" />
              <mxPoint x="540" y="605" />
            </Array>
          </mxGeometry>
        </mxCell>
        <mxCell id="F3BoEiRZaCUdNHYmwXmp-40" style="edgeStyle=orthogonalEdgeStyle;rounded=0;orthogonalLoop=1;jettySize=auto;html=1;entryX=0.5;entryY=0;entryDx=0;entryDy=0;" edge="1" parent="1" source="F3BoEiRZaCUdNHYmwXmp-16" target="F3BoEiRZaCUdNHYmwXmp-39">
          <mxGeometry relative="1" as="geometry">
            <Array as="points">
              <mxPoint x="440" y="610" />
              <mxPoint x="650" y="610" />
            </Array>
          </mxGeometry>
        </mxCell>
        <mxCell id="F3BoEiRZaCUdNHYmwXmp-16" value="Bewohner" style="whiteSpace=wrap;html=1;rounded=0;" vertex="1" parent="1">
          <mxGeometry x="380" y="510" width="120" height="60" as="geometry" />
        </mxCell>
        <mxCell id="F3BoEiRZaCUdNHYmwXmp-20" value="Haustiere" style="ellipse;whiteSpace=wrap;html=1;" vertex="1" parent="1">
          <mxGeometry x="130" y="640" width="90" height="50" as="geometry" />
        </mxCell>
        <mxCell id="F3BoEiRZaCUdNHYmwXmp-22" value="Miete" style="ellipse;whiteSpace=wrap;html=1;rounded=0;" vertex="1" parent="1">
          <mxGeometry x="600" y="515" width="80" height="50" as="geometry" />
        </mxCell>
        <mxCell id="F3BoEiRZaCUdNHYmwXmp-25" style="edgeStyle=orthogonalEdgeStyle;rounded=0;orthogonalLoop=1;jettySize=auto;html=1;exitX=0.5;exitY=1;exitDx=0;exitDy=0;" edge="1" parent="1" source="F3BoEiRZaCUdNHYmwXmp-22" target="F3BoEiRZaCUdNHYmwXmp-22">
          <mxGeometry relative="1" as="geometry" />
        </mxCell>
        <mxCell id="F3BoEiRZaCUdNHYmwXmp-26" value="Name" style="ellipse;whiteSpace=wrap;html=1;rounded=0;" vertex="1" parent="1">
          <mxGeometry x="400" y="640" width="80" height="50" as="geometry" />
        </mxCell>
        <mxCell id="F3BoEiRZaCUdNHYmwXmp-29" value="Kündigunsdatum" style="ellipse;whiteSpace=wrap;html=1;" vertex="1" parent="1">
          <mxGeometry x="195" y="710" width="90" height="50" as="geometry" />
        </mxCell>
        <mxCell id="F3BoEiRZaCUdNHYmwXmp-35" value="Ansprechpartner" style="ellipse;whiteSpace=wrap;html=1;" vertex="1" parent="1">
          <mxGeometry x="30" y="390" width="100" height="50" as="geometry" />
        </mxCell>
        <mxCell id="F3BoEiRZaCUdNHYmwXmp-36" value="Ansprechpartner muss nicht Bewohner sein falls&amp;nbsp; Behinderung usw." style="text;html=1;strokeColor=none;fillColor=none;align=center;verticalAlign=middle;whiteSpace=wrap;rounded=0;" vertex="1" parent="1">
          <mxGeometry x="-50" y="290" width="160" height="80" as="geometry" />
        </mxCell>
        <mxCell id="F3BoEiRZaCUdNHYmwXmp-37" value="Vorname" style="ellipse;whiteSpace=wrap;html=1;rounded=0;" vertex="1" parent="1">
          <mxGeometry x="500" y="640" width="80" height="50" as="geometry" />
        </mxCell>
        <mxCell id="F3BoEiRZaCUdNHYmwXmp-39" value="Alter" style="ellipse;whiteSpace=wrap;html=1;rounded=0;" vertex="1" parent="1">
          <mxGeometry x="610" y="640" width="80" height="50" as="geometry" />
        </mxCell>
      </root>
    </mxGraphModel>
  </diagram>
</mxfile>
